<svg width="14" height="16" viewBox="0 0 14 16" fill="none" xmlns="http://www.w3.org/2000/svg">
<g id="Group">
<g id="Group_2">
<path id="Vector" d="M7 2C7.55229 2 8 1.55228 8 1C8 0.447715 7.55229 0 7 0C6.44772 0 6 0.447715 6 1C6 1.55228 6.44772 2 7 2Z" fill="white"/>
<path id="Vector_2" d="M11.9501 4.04988C12.3406 4.4404 12.9738 4.4404 13.3643 4.04988C13.7549 3.65935 13.7549 3.02619 13.3643 2.63566C12.9738 2.24514 12.3406 2.24514 11.9501 2.63566C11.5596 3.02619 11.5596 3.65935 11.9501 4.04988Z" fill="white"/>
<path id="Vector_3" d="M2.04988 4.04988C2.4404 3.65935 2.4404 3.02619 2.04988 2.63566C1.65935 2.24514 1.02619 2.24514 0.635663 2.63566C0.245143 3.02619 0.245143 3.65935 0.635663 4.04988C1.02619 4.4404 1.65935 4.4404 2.04988 4.04988Z" fill="white"/>
<path id="Vector_4" fill-rule="evenodd" clip-rule="evenodd" d="M2 9C2 6.23858 4.23858 4 7 4C9.7614 4 12 6.23858 12 9V14H14V16H0V14H2V9ZM4 9C4 7.34315 5.34315 6 7 6V14H4V9Z" fill="white"/>
</g>
</g>
</svg>
