<svg width="24" height="24" viewBox="0 0 24 24" fill="none" xmlns="http://www.w3.org/2000/svg">
<path d="M2.056 19.515L8.144 13.365L11.434 16.515L15.455 13L17.695 15.184M22 5.5C22 5.10218 21.842 4.72064 21.5607 4.43934C21.2794 4.15804 20.8978 4 20.5 4H3.5C3.10218 4 2.72064 4.15804 2.43934 4.43934C2.15804 4.72064 2 5.10218 2 5.5V10H22V5.5Z" stroke="#9197B3" stroke-linecap="round" stroke-linejoin="round"/>
<path d="M22 9V18.5C22 18.8978 21.842 19.2794 21.5607 19.5607C21.2794 19.842 20.8978 20 20.5 20H6M9.556 7H18.556M5.555 7H6.555M2 9V13.5" stroke="#9197B3" stroke-linecap="round" stroke-linejoin="round"/>
</svg>
