<svg width="18" height="18" viewBox="0 0 18 18" fill="none" xmlns="http://www.w3.org/2000/svg">
<g id="monitor-alt-1-svgrepo-com 1">
<path id="Vector" d="M8.99964 11.0926C8.90889 11.0915 8.81934 11.071 8.73714 11.0326C8.62464 10.9726 5.99964 9.53256 5.43714 7.65006C5.26499 7.17134 5.20454 6.6596 5.26044 6.15395C5.31633 5.6483 5.48708 5.16212 5.75964 4.73256C5.96242 4.46577 6.22631 4.25158 6.5291 4.10801C6.83189 3.96444 7.16474 3.8957 7.49964 3.90756C7.78082 3.89983 8.06027 3.95276 8.31917 4.06277C8.57799 4.17278 8.81012 4.33728 8.99964 4.54506C9.18917 4.33728 9.42129 4.17278 9.68012 4.06277C9.93902 3.95276 10.2185 3.89983 10.4996 3.90756C10.832 3.89812 11.1619 3.96803 11.4619 4.1115C11.7619 4.25498 12.0233 4.46788 12.2246 4.73256C12.4972 5.16212 12.668 5.6483 12.7238 6.15395C12.7797 6.6596 12.7193 7.17134 12.5471 7.65006C11.9846 9.57006 9.35964 10.9726 9.24714 11.0326C9.16952 11.069 9.08537 11.0894 8.99964 11.0926ZM7.49964 5.03256C7.34172 5.02094 7.18341 5.0492 7.03925 5.11472C6.8951 5.18024 6.76973 5.28094 6.67464 5.40756C6.50918 5.69807 6.41053 6.02181 6.38588 6.35523C6.36123 6.68865 6.4112 7.02338 6.53214 7.33506C6.84714 8.41506 8.24964 9.43506 9.01464 9.88506C9.76464 9.42756 11.1821 8.38506 11.4971 7.33506C11.6181 7.02338 11.6681 6.68865 11.6434 6.35523C11.6187 6.02181 11.5201 5.69807 11.3546 5.40756C11.2289 5.24171 11.0546 5.1193 10.8559 5.05749C10.6571 4.99568 10.4441 4.99757 10.2465 5.06288C10.049 5.12819 9.87677 5.25365 9.75399 5.4217C9.63129 5.58975 9.56424 5.79198 9.56214 6.00006C9.56214 6.14924 9.50289 6.29232 9.39737 6.39781C9.29192 6.5033 9.14882 6.56256 8.99964 6.56256C8.85047 6.56256 8.70737 6.5033 8.60192 6.39781C8.49639 6.29232 8.43714 6.14924 8.43714 6.00006C8.44224 5.87418 8.42169 5.74858 8.37677 5.63087C8.33184 5.51318 8.26344 5.40583 8.17577 5.31535C8.08809 5.22488 7.98294 5.15315 7.86677 5.10455C7.75052 5.05593 7.62564 5.03144 7.49964 5.03256Z" fill="white"/>
<path id="Vector_2" d="M14.0697 13.3122H3.92969C3.13403 13.3122 2.37098 12.9961 1.80837 12.4335C1.24576 11.8709 0.929688 11.1079 0.929688 10.3122V4.67969C0.929688 3.88403 1.24576 3.12098 1.80837 2.55836C2.37098 1.99576 3.13403 1.67969 3.92969 1.67969H14.0697C14.8654 1.67969 15.6284 1.99576 16.191 2.55836C16.7536 3.12098 17.0697 3.88403 17.0697 4.67969V10.3197C17.0677 11.114 16.7507 11.8752 16.1884 12.4362C15.6259 12.9971 14.864 13.3122 14.0697 13.3122ZM3.92969 2.81219C3.435 2.81416 2.96114 3.01155 2.61134 3.36134C2.26155 3.71114 2.06416 4.185 2.06219 4.67969V10.3197C2.06416 10.8144 2.26155 11.2882 2.61134 11.638C2.96114 11.9878 3.435 12.1852 3.92969 12.1872H14.0697C14.5644 12.1852 15.0382 11.9878 15.388 11.638C15.7378 11.2882 15.9352 10.8144 15.9372 10.3197V4.67969C15.9352 4.185 15.7378 3.71114 15.388 3.36134C15.0382 3.01155 14.5644 2.81416 14.0697 2.81219H3.92969Z" fill="white"/>
<path id="Vector_3" d="M9 16.3125C8.85142 16.3105 8.70945 16.2507 8.60437 16.1456C8.4993 16.0405 8.43945 15.8986 8.4375 15.75V12.75C8.4375 12.6008 8.49675 12.4577 8.60227 12.3523C8.70772 12.2467 8.85083 12.1875 9 12.1875C9.14917 12.1875 9.29228 12.2467 9.39773 12.3523C9.50325 12.4577 9.5625 12.6008 9.5625 12.75V15.75C9.56055 15.8986 9.5007 16.0405 9.39563 16.1456C9.29055 16.2507 9.14858 16.3105 9 16.3125Z" fill="white"/>
<path id="Vector_4" d="M13.5 16.3125H4.5C4.35082 16.3125 4.20774 16.2533 4.10225 16.1477C3.99676 16.0423 3.9375 15.8992 3.9375 15.75C3.9375 15.6008 3.99676 15.4577 4.10225 15.3523C4.20774 15.2467 4.35082 15.1875 4.5 15.1875H13.5C13.6492 15.1875 13.7923 15.2467 13.8977 15.3523C14.0032 15.4577 14.0625 15.6008 14.0625 15.75C14.0625 15.8992 14.0032 16.0423 13.8977 16.1477C13.7923 16.2533 13.6492 16.3125 13.5 16.3125Z" fill="white"/>
</g>
</svg>
