<svg width="19" height="19" viewBox="0 0 19 19" fill="none" xmlns="http://www.w3.org/2000/svg">
<path d="M9.15032 0.57373C14.1289 0.57373 18.2417 4.6567 18.2417 9.5864C18.2349 14.8051 14.3066 18.7619 9.13675 18.7483C3.96689 18.7348 0.0453898 14.7386 0.0711713 9.5389C0.094239 4.63771 4.21113 0.57373 9.15032 0.57373ZM9.13675 16.4809C12.8669 16.4918 15.9214 13.5106 15.9336 9.85235C15.9444 5.84944 13.1057 2.9117 9.21274 2.89814C5.31974 2.88457 2.37387 5.81416 2.36437 9.6746C2.35972 10.567 2.53151 11.4515 2.86988 12.2772C3.20824 13.103 3.7065 13.8537 4.336 14.4862C4.9655 15.1187 5.71382 15.6206 6.53794 15.9629C7.36206 16.3052 8.24572 16.4813 9.13811 16.4809H9.13675Z" fill="#FF718B"/>
<path d="M11.2412 12.9435C10.6143 12.881 10.1747 12.7467 9.76897 12.8159C9.13656 12.9059 8.52185 13.0931 7.94663 13.3709C7.17997 13.7712 6.53679 13.778 6.15278 13.204C5.7457 12.592 5.94517 11.9285 6.70369 11.4495C8.16916 10.5254 9.73912 10.2201 11.4231 10.7086C12.0907 10.9013 12.3919 11.4074 12.2752 12.0411C12.2408 12.291 12.1172 12.52 11.9271 12.6858C11.7371 12.8517 11.4935 12.9432 11.2412 12.9435Z" fill="#FF718B"/>
<path d="M6.85759 6.27542C7.1644 6.27315 7.45994 6.39097 7.68104 6.6037C7.90214 6.81643 8.03126 7.1072 8.04082 7.41388C8.02175 7.70818 7.89774 7.98588 7.69133 8.19653C7.48491 8.40717 7.20979 8.53679 6.91593 8.56183C6.62134 8.5584 6.33887 8.44406 6.12485 8.2416C5.91082 8.03915 5.78097 7.76346 5.76119 7.46951C5.74844 7.31771 5.7673 7.16491 5.81658 7.02076C5.86587 6.87662 5.94451 6.74426 6.04754 6.63205C6.15058 6.51983 6.27576 6.43021 6.41518 6.36882C6.55461 6.30744 6.70525 6.27564 6.85759 6.27542Z" fill="#FF718B"/>
<path d="M11.3949 8.54975C11.0877 8.54092 10.7961 8.41266 10.582 8.19222C10.3679 7.97178 10.2482 7.67654 10.2483 7.36923C10.2737 7.07595 10.4059 6.80219 10.6197 6.59985C10.8336 6.39752 11.1142 6.28068 11.4085 6.27148C11.561 6.27138 11.7121 6.30205 11.8525 6.36168C11.993 6.4213 12.1199 6.50864 12.2258 6.61847C12.3317 6.7283 12.4144 6.85837 12.4689 7.0009C12.5233 7.14342 12.5485 7.29546 12.5428 7.44793C12.5306 7.74421 12.4043 8.02428 12.1904 8.22962C11.9764 8.43495 11.6914 8.54966 11.3949 8.54975Z" fill="#FF718B"/>
</svg>
