<svg width="19" height="19" viewBox="0 0 19 19" fill="none" xmlns="http://www.w3.org/2000/svg">
<path d="M0.777954 9.56331C0.777954 4.64042 4.90569 0.566954 9.88965 0.573739C14.8261 0.573739 18.9389 4.66213 18.9471 9.56195C18.9566 14.7644 15.012 18.7456 9.85573 18.7483C4.69944 18.751 0.777954 14.7874 0.777954 9.56331ZM9.83537 16.4836C13.518 16.5026 16.6335 13.5052 16.6539 9.92561C16.6756 5.90371 13.8125 2.91714 9.91815 2.90085C6.05229 2.88457 3.16613 5.77616 3.06707 9.60538C2.97616 13.1374 5.97495 16.5501 9.83537 16.4809V16.4836Z" fill="#FFEB3A"/>
<path d="M9.81172 13.1955C8.81845 13.1955 7.82519 13.2063 6.83329 13.1955C6.06256 13.1846 5.61206 12.7491 5.61206 12.0557C5.61206 11.3623 6.07477 10.905 6.83329 10.8996C8.86323 10.886 10.8936 10.886 12.9245 10.8996C13.6803 10.8996 14.1064 11.365 14.0955 12.0801C14.086 12.7653 13.6749 13.1792 12.9326 13.1928C11.8864 13.2145 10.8484 13.1955 9.81172 13.1955Z" fill="#FFEB3A"/>
<path d="M7.49595 8.56321C7.20078 8.55873 6.9181 8.44332 6.70414 8.23992C6.49018 8.03652 6.36061 7.76004 6.34122 7.46546C6.32964 7.31378 6.34949 7.16133 6.39952 7.01766C6.44955 6.874 6.52868 6.74219 6.63197 6.6305C6.73525 6.51881 6.86047 6.42963 6.9998 6.36854C7.13912 6.30744 7.28955 6.27575 7.44168 6.27545C7.73694 6.27251 8.0223 6.38188 8.23997 6.5814C8.45763 6.78093 8.59135 7.05572 8.61405 7.35013C8.61692 7.65661 8.50289 7.95266 8.29517 8.17803C8.08745 8.40339 7.80165 8.54113 7.49595 8.56321Z" fill="#FFEB3A"/>
<path d="M11.9618 6.27553C12.1088 6.26825 12.2558 6.29027 12.3942 6.34033C12.5326 6.39039 12.6597 6.46747 12.768 6.5671C12.8764 6.66673 12.9638 6.78692 13.0253 6.92066C13.0867 7.0544 13.121 7.19904 13.126 7.34614C13.1368 7.65425 13.0268 7.9544 12.8195 8.18255C12.6121 8.4107 12.3238 8.54879 12.016 8.56736C11.419 8.58229 10.826 8.00288 10.8315 7.40584C10.8459 7.11074 10.9697 6.83157 11.1786 6.62265C11.3875 6.41373 11.6667 6.29 11.9618 6.27553Z" fill="#FFEB3A"/>
</svg>
