<svg width="26" height="26" viewBox="0 0 26 26" fill="none" xmlns="http://www.w3.org/2000/svg">
<g clip-path="url(#clip0_1497_8726)">
<path d="M15.6869 2.60795C15.5611 2.06506 15.2476 1.58406 14.8016 1.24982C14.3557 0.915584 13.8061 0.749592 13.2497 0.781137C12.6933 0.812682 12.166 1.03974 11.7607 1.42224C11.3554 1.80473 11.0983 2.31809 11.0346 2.87172C10.971 3.42534 11.105 3.98366 11.4129 4.44814C11.7208 4.91262 12.1829 5.2534 12.7176 5.41037C13.2523 5.56733 13.8253 5.53038 14.3354 5.30604C14.8455 5.0817 15.26 4.68438 15.5057 4.1842C17.0015 4.52481 18.3919 5.22416 19.5572 6.22195C20.7224 7.21973 21.6274 8.48599 22.1942 9.91151L23.6364 9.34439C22.9688 7.65357 21.8938 6.15389 20.5069 4.97866C19.1201 3.80343 17.4643 2.98906 15.6869 2.60795ZM13.394 3.93882C13.2884 3.94221 13.1833 3.92435 13.0847 3.88629C12.9862 3.84823 12.8963 3.79075 12.8204 3.71727C12.7446 3.64379 12.6842 3.5558 12.643 3.45854C12.6018 3.36128 12.5806 3.25673 12.5806 3.1511C12.5806 3.04548 12.6018 2.94093 12.643 2.84367C12.6842 2.74641 12.7446 2.65842 12.8204 2.58494C12.8963 2.51146 12.9862 2.45398 13.0847 2.41592C13.1833 2.37786 13.2884 2.35999 13.394 2.36338C13.603 2.36338 13.8035 2.44642 13.9513 2.59422C14.0991 2.74202 14.1821 2.94249 14.1821 3.15151C14.1821 3.36053 14.0991 3.561 13.9513 3.7088C13.8035 3.8566 13.603 3.93882 13.394 3.93882ZM9.92707 4.5937L9.34451 3.15232C7.65369 3.81992 6.15401 4.89492 4.97878 6.28178C3.80355 7.66864 2.98918 9.32438 2.60807 11.1018C2.06518 11.2276 1.58418 11.5412 1.24994 11.9871C0.915706 12.433 0.749714 12.9826 0.781259 13.539C0.812804 14.0954 1.03986 14.6227 1.42236 15.028C1.80486 15.4333 2.31821 15.6904 2.87184 15.7541C3.42547 15.8177 3.98378 15.6837 4.44826 15.3758C4.91274 15.0679 5.25353 14.6058 5.41049 14.0711C5.56746 13.5364 5.53051 12.9634 5.30616 12.4533C5.08182 11.9432 4.6845 11.5287 4.18432 11.283C4.52633 9.78547 5.22797 8.39377 6.22856 7.22826C7.22914 6.06274 8.49857 5.15849 9.92707 4.5937ZM3.15082 14.1828C3.04732 14.1828 2.94484 14.1624 2.84922 14.1228C2.7536 14.0832 2.66672 14.0252 2.59353 13.952C2.52035 13.8788 2.46229 13.7919 2.42269 13.6963C2.38308 13.6007 2.36269 13.4982 2.36269 13.3947C2.36269 13.2912 2.38308 13.1887 2.42269 13.0931C2.46229 12.9975 2.52035 12.9106 2.59353 12.8374C2.66672 12.7642 2.7536 12.7062 2.84922 12.6666C2.94484 12.627 3.04732 12.6066 3.15082 12.6066C3.35984 12.6066 3.56031 12.6896 3.70811 12.8374C3.85591 12.9852 3.93894 13.1857 3.93894 13.3947C3.93894 13.6037 3.85591 13.8042 3.70811 13.952C3.56031 14.0998 3.35984 14.1828 3.15082 14.1828ZM13.394 21.2735C12.9545 21.2749 12.524 21.3989 12.151 21.6314C11.778 21.8639 11.4772 22.1958 11.2823 22.5898C9.78632 22.2492 8.39563 21.5498 7.23024 20.5518C6.06485 19.5539 5.15974 18.2874 4.59301 16.8616L3.15163 17.4442C3.8214 19.1379 4.90001 20.6394 6.29122 21.8148C7.68243 22.9903 9.34297 23.803 11.1247 24.1806C11.227 24.6144 11.4499 25.0104 11.7676 25.323C12.0853 25.6356 12.4848 25.852 12.9202 25.9473C13.3556 26.0427 13.809 26.013 14.2282 25.8617C14.6475 25.7105 15.0154 25.4439 15.2897 25.0925C15.5639 24.7412 15.7332 24.3195 15.7782 23.8761C15.8232 23.4327 15.7419 22.9857 15.5437 22.5864C15.3456 22.1872 15.0386 21.8522 14.6583 21.6199C14.2779 21.3876 13.8396 21.2675 13.394 21.2735ZM13.394 24.4252C13.185 24.4252 12.9845 24.3422 12.8367 24.1944C12.6889 24.0466 12.6059 23.8461 12.6059 23.6371C12.6059 23.428 12.6889 23.2276 12.8367 23.0798C12.9845 22.932 13.185 22.8489 13.394 22.8489C13.603 22.8489 13.8035 22.932 13.9513 23.0798C14.0991 23.2276 14.1821 23.428 14.1821 23.6371C14.1821 23.8461 14.0991 24.0466 13.9513 24.1944C13.8035 24.3422 13.603 24.4252 13.394 24.4252ZM25.9999 13.3939C26.0014 12.972 25.8899 12.5575 25.6771 12.1932C25.4643 11.8289 25.158 11.5282 24.7898 11.3223C24.4216 11.1164 24.005 11.0127 23.5833 11.022C23.1615 11.0314 22.7499 11.1534 22.3912 11.3754C22.0325 11.5974 21.7397 11.9114 21.5433 12.2847C21.3468 12.658 21.2538 13.0771 21.2739 13.4985C21.294 13.9199 21.4265 14.3282 21.6576 14.6811C21.8887 15.034 22.21 15.3187 22.5883 15.5056C22.2476 17.0014 21.5481 18.3919 20.5502 19.5572C19.5522 20.7224 18.2858 21.6274 16.8601 22.1941L17.4435 23.6363C19.1372 22.9665 20.6387 21.8879 21.8141 20.4967C22.9896 19.1055 23.8024 17.4449 24.1799 15.6632C24.6928 15.5419 25.1505 15.2527 25.4802 14.8416C25.81 14.4304 25.9929 13.9209 25.9999 13.3939ZM23.6356 14.182C23.4265 14.182 23.2261 14.099 23.0783 13.9512C22.9305 13.8034 22.8474 13.6029 22.8474 13.3939C22.8474 13.1849 22.9305 12.9844 23.0783 12.8366C23.2261 12.6888 23.4265 12.6058 23.6356 12.6058C23.8446 12.6058 24.0451 12.6888 24.1929 12.8366C24.3407 12.9844 24.4237 13.1849 24.4237 13.3939C24.4237 13.6029 24.3407 13.8034 24.1929 13.9512C24.0451 14.099 23.8446 14.182 23.6356 14.182Z" fill="#9197B3"/>
<path d="M15.5918 13.2846C16.0401 12.8469 16.3478 12.2855 16.4755 11.6721C16.6032 11.0587 16.5452 10.4212 16.3089 9.84088C16.0726 9.26061 15.6687 8.76395 15.1488 8.41431C14.6288 8.06467 14.0165 7.87793 13.39 7.87793C12.7634 7.87793 12.1511 8.06467 11.6312 8.41431C11.1113 8.76395 10.7074 9.26061 10.4711 9.84088C10.2347 10.4212 10.1767 11.0587 10.3045 11.6721C10.4322 12.2855 10.7398 12.8469 11.1881 13.2846C10.6546 13.6452 10.2176 14.131 9.91538 14.6995C9.61312 15.2681 9.45478 15.9021 9.45422 16.546V18.1214H17.333V16.5451C17.3317 15.9006 17.1722 15.2662 16.8686 14.6976C16.5651 14.129 16.1267 13.6443 15.5918 13.2846ZM11.8178 11.0299C11.8178 10.8229 11.8586 10.6179 11.9378 10.4267C12.017 10.2355 12.1331 10.0617 12.2795 9.91532C12.4258 9.76895 12.5996 9.65285 12.7908 9.57363C12.9821 9.49442 13.187 9.45365 13.394 9.45365C13.601 9.45365 13.806 9.49442 13.9972 9.57363C14.1885 9.65285 14.3622 9.76895 14.5086 9.91532C14.655 10.0617 14.7711 10.2355 14.8503 10.4267C14.9295 10.6179 14.9703 10.8229 14.9703 11.0299C14.9703 11.4479 14.8042 11.8489 14.5086 12.1445C14.213 12.4401 13.8121 12.6061 13.394 12.6061C12.976 12.6061 12.5751 12.4401 12.2795 12.1445C11.9839 11.8489 11.8178 11.4479 11.8178 11.0299ZM11.0297 16.5451C11.0238 16.231 11.0807 15.9189 11.1969 15.627C11.313 15.3351 11.4862 15.0692 11.7063 14.845C11.9264 14.6208 12.189 14.4427 12.4787 14.3211C12.7684 14.1996 13.0794 14.1369 13.3936 14.1369C13.7078 14.1369 14.0188 14.1996 14.3085 14.3211C14.5983 14.4427 14.8608 14.6208 15.0809 14.845C15.301 15.0692 15.4742 15.3351 15.5904 15.627C15.7066 15.9189 15.7634 16.231 15.7576 16.5451H11.0297Z" fill="#9197B3"/>
</g>
<defs>
<clipPath id="clip0_1497_8726">
<rect width="26" height="26" fill="white"/>
</clipPath>
</defs>
</svg>
