<svg width="19" height="19" viewBox="0 0 19 19" fill="none" xmlns="http://www.w3.org/2000/svg">
<path d="M9.45098 18.7482C4.26622 18.7414 0.38274 14.8023 0.390882 9.5592C0.399023 4.67432 4.53082 0.57373 9.45912 0.57373C14.4091 0.57373 18.5735 4.69196 18.5613 9.5999C18.5545 14.8281 14.6385 18.7563 9.45098 18.7482ZM2.69763 9.78037C2.59858 12.8389 5.07765 16.5174 9.46726 16.5242C13.6303 16.5242 16.2518 13.1537 16.264 9.79123C16.2762 5.87111 13.2978 2.87098 9.44284 2.89405C5.58785 2.91712 2.69763 5.86568 2.69763 9.78037Z" fill="#7FE47E"/>
<path d="M9.43586 14.4035C7.73836 14.4035 6.28104 13.4062 5.71928 11.8702C5.4479 11.1307 5.68807 10.44 6.29325 10.2161C6.94593 9.97459 7.54568 10.269 7.8442 11.0181C8.14272 11.7671 8.69363 12.1036 9.45893 12.1199C10.2242 12.1362 10.7806 11.7304 11.1021 11.0343C11.4617 10.2541 12.052 9.94881 12.6979 10.2338C13.2949 10.4956 13.4862 11.1551 13.1864 11.919C12.5812 13.4646 11.1646 14.4144 9.43586 14.4035Z" fill="#7FE47E"/>
<path d="M8.23199 7.4357C8.23242 7.72964 8.12008 8.01255 7.91812 8.22613C7.71616 8.4397 7.43997 8.56767 7.14646 8.58365C6.99469 8.59601 6.84201 8.57682 6.69803 8.52729C6.55404 8.47775 6.42187 8.39895 6.30983 8.29583C6.19779 8.19271 6.10832 8.06752 6.04703 7.92813C5.98575 7.78874 5.95398 7.63817 5.95373 7.48591C5.94463 7.33995 5.9656 7.19368 6.01534 7.05616C6.06509 6.91864 6.14255 6.7928 6.24292 6.68644C6.3433 6.58009 6.46445 6.49548 6.59886 6.43787C6.73328 6.38026 6.8781 6.35087 7.02434 6.35153C7.71772 6.32711 8.21435 6.77896 8.23199 7.4357Z" fill="#7FE47E"/>
<path d="M12.7388 7.46277C12.7408 7.61473 12.7113 7.76547 12.6524 7.90554C12.5934 8.04562 12.5062 8.17202 12.3962 8.27684C12.2861 8.38166 12.1556 8.46264 12.0129 8.51472C11.8701 8.5668 11.7181 8.58886 11.5664 8.57951C11.2723 8.56598 10.9938 8.44316 10.7855 8.2351C10.5772 8.02704 10.4541 7.74872 10.4402 7.45463C10.4429 7.30257 10.4762 7.15262 10.5381 7.01373C10.6001 6.87483 10.6894 6.74985 10.8007 6.64625C10.9121 6.54264 11.0431 6.46254 11.1861 6.41072C11.3291 6.35891 11.4811 6.33645 11.6329 6.34468C11.7803 6.34067 11.9269 6.36695 12.0637 6.42188C12.2005 6.47681 12.3245 6.55923 12.4282 6.66403C12.5319 6.76884 12.6129 6.8938 12.6663 7.03119C12.7198 7.16858 12.7444 7.31547 12.7388 7.46277Z" fill="#7FE47E"/>
</svg>
