<svg width="24" height="24" viewBox="0 0 24 24" fill="none" xmlns="http://www.w3.org/2000/svg">
<path d="M19 11.9238C19 13.8778 18.3223 15.5332 16.967 16.8898C15.611 18.2458 13.9563 18.9238 12.003 18.9238C10.0497 18.9238 8.39433 18.2458 7.037 16.8898C5.67967 15.5338 5.00067 13.8785 5 11.9238C5 10.7352 5.28233 9.62216 5.847 8.58483C6.41167 7.54816 7.2 6.71249 8.212 6.07783L5 6.07783L5 5.07783L10.23 5.07783L10.23 10.3078L9.23 10.3078L9.23 6.60783C8.23333 7.12916 7.44567 7.86183 6.867 8.80583C6.28833 9.74983 5.99933 10.7892 6 11.9238C6 13.5905 6.58333 15.0072 7.75 16.1738C8.91667 17.3405 10.3333 17.9238 12 17.9238C13.6667 17.9238 15.0833 17.3405 16.25 16.1738C17.4167 15.0072 18 13.5905 18 11.9238C18 10.6405 17.6333 9.48216 16.9 8.44883C16.1667 7.41549 15.2 6.6905 14 6.27383L14 5.21183C15.4973 5.65316 16.705 6.49116 17.623 7.72583C18.541 8.96049 19 10.3598 19 11.9238Z" fill="white"/>
</svg>
